<?xml version="1.0" encoding="UTF-8" standalone="no" ?>
<!DOCTYPE svg PUBLIC "-//W3C//DTD SVG 1.1//EN" "http://www.w3.org/Graphics/SVG/1.1/DTD/svg11.dtd">
<svg xmlns="http://www.w3.org/2000/svg" xmlns:xlink="http://www.w3.org/1999/xlink" version="1.1" width="640" height="640" viewBox="0 0 640 640" xml:space="preserve">
<desc>Created with Fabric.js 4.6.0</desc>
<defs>
</defs>
<g transform="matrix(0.98 0 0 0.98 319.83 320)" id="v7pKCdyGlRR6LXr-kbVEu"  >
<path style="stroke: rgb(80,53,111); stroke-width: 0; stroke-dasharray: none; stroke-linecap: butt; stroke-dashoffset: 0; stroke-linejoin: miter; stroke-miterlimit: 4; fill: rgb(0,0,0); fill-rule: nonzero; opacity: 1;" vector-effect="non-scaling-stroke"  transform=" translate(0, 0)" d="M -326.36436 -326.36436 L 326.36436 -326.36436 L 326.36436 326.36436 L -326.36436 326.36436 z" stroke-linecap="round" />
</g>
<g transform="matrix(1.02 0 0 1.02 320.26 320)" id="_ZJisNQsjuZsbtU2FCi1i"  >
<path style="stroke: rgb(148,132,76); stroke-width: 0; stroke-dasharray: none; stroke-linecap: butt; stroke-dashoffset: 0; stroke-linejoin: miter; stroke-miterlimit: 4; fill: rgb(218,165,32); fill-rule: nonzero; opacity: 1;" vector-effect="non-scaling-stroke"  transform=" translate(0, 0)" d="M 158.01693 -273.67598 L 316.01379 0 L 158.01692999999997 273.67598 L -158.01694 273.67598 L -316.0138 0 L -158.01694 -273.67598 z" stroke-linecap="round" />
</g>
<g transform="matrix(0 1.16 -1.16 0 320.01 319.72)" id="8DYwAZdf6SL7FNc6sNGYK"  >
<path style="stroke: rgb(253,24,79); stroke-width: 0; stroke-dasharray: none; stroke-linecap: butt; stroke-dashoffset: 0; stroke-linejoin: miter; stroke-miterlimit: 4; fill: rgb(0,0,0); fill-rule: nonzero; opacity: 1;" vector-effect="non-scaling-stroke"  transform=" translate(-240.29, -208.09)" d="M 360.42616 0 L 480.57142 208.09354 L 360.42616 416.18708 L 120.14525999999998 416.18708 L -1.4210854715202004e-14 208.09354 L 120.14525999999998 0 z" stroke-linecap="round" />
</g>
<g transform="matrix(1.22 0 0 1.22 320.26 319.72)" id="HrIrfLHviypPRrCLCZAhR"  >
<path style="stroke: rgb(10,244,9); stroke-width: 0; stroke-dasharray: none; stroke-linecap: butt; stroke-dashoffset: 0; stroke-linejoin: miter; stroke-miterlimit: 4; fill: rgb(218,165,32); fill-rule: nonzero; opacity: 1;" vector-effect="non-scaling-stroke"  transform=" translate(-196.63, -170.29)" d="M 294.94376 0 L 393.25802 170.28572 L 294.94376 340.57144 L 98.31425999999999 340.57144 L -1.4210854715202004e-14 170.28572 L 98.31425999999999 0 z" stroke-linecap="round" />
</g>
<g transform="matrix(0 1.09 -1.09 0 320.26 320.31)" id="BZ2hbHqz2LyOkG72uQBKA"  >
<path style="stroke: rgb(75,213,145); stroke-width: 0; stroke-dasharray: none; stroke-linecap: butt; stroke-dashoffset: 0; stroke-linejoin: miter; stroke-miterlimit: 4; fill: rgb(0,0,0); fill-rule: nonzero; opacity: 1;" vector-effect="non-scaling-stroke"  transform=" translate(0, 0)" d="M 95.56953 -165.53457 L 191.14287000000002 0 L 95.56953000000001 165.53457 L -95.56951999999998 165.53457 L -191.14285999999998 0 L -95.56951999999998 -165.53457 z" stroke-linecap="round" />
</g>
</svg>